<?xml version="1.0" standalone="no"?>
<!DOCTYPE svg PUBLIC "-//W3C//DTD SVG 20010904//EN"
 "http://www.w3.org/TR/2001/REC-SVG-20010904/DTD/svg10.dtd">
<svg version="1.0" xmlns="http://www.w3.org/2000/svg"
 width="500.000000pt" height="500.000000pt" viewBox="0 0 500.000000 500.000000"
 preserveAspectRatio="xMidYMid meet">

<g transform="translate(0.000000,500.000000) scale(0.100000,-0.100000)"
fill="#000000" stroke="none">
<path d="M2458 4023 c23 -2 61 -2 85 0 23 2 4 4 -43 4 -47 0 -66 -2 -42 -4z"/>
<path d="M2313 4013 c9 -2 23 -2 30 0 6 3 -1 5 -18 5 -16 0 -22 -2 -12 -5z"/>
<path d="M2658 4013 c6 -2 18 -2 25 0 6 3 1 5 -13 5 -14 0 -19 -2 -12 -5z"/>
<path d="M2248 4003 c6 -2 18 -2 25 0 6 3 1 5 -13 5 -14 0 -19 -2 -12 -5z"/>
<path d="M2728 4003 c6 -2 18 -2 25 0 6 3 1 5 -13 5 -14 0 -19 -2 -12 -5z"/>
<path d="M2188 3993 c6 -2 18 -2 25 0 6 3 1 5 -13 5 -14 0 -19 -2 -12 -5z"/>
<path d="M2798 3993 c7 -3 16 -2 19 1 4 3 -2 6 -13 5 -11 0 -14 -3 -6 -6z"/>
<path d="M2148 3983 c7 -3 16 -2 19 1 4 3 -2 6 -13 5 -11 0 -14 -3 -6 -6z"/>
<path d="M2838 3983 c7 -3 16 -2 19 1 4 3 -2 6 -13 5 -11 0 -14 -3 -6 -6z"/>
<path d="M2108 3973 c7 -3 16 -2 19 1 4 3 -2 6 -13 5 -11 0 -14 -3 -6 -6z"/>
<path d="M2878 3973 c7 -3 16 -2 19 1 4 3 -2 6 -13 5 -11 0 -14 -3 -6 -6z"/>
<path d="M2918 3963 c7 -3 16 -2 19 1 4 3 -2 6 -13 5 -11 0 -14 -3 -6 -6z"/>
<path d="M1960 3930 c-18 -12 -2 -12 25 0 13 6 15 9 5 9 -8 0 -22 -4 -30 -9z"/>
<path d="M1910 3910 c-8 -5 -10 -10 -5 -10 6 0 17 5 25 10 8 5 11 10 5 10 -5
0 -17 -5 -25 -10z"/>
<path d="M1818 3869 c-21 -11 -38 -22 -38 -24 0 -5 79 32 89 41 12 11 -18 1
-51 -17z"/>
<path d="M3131 3886 c10 -9 109 -56 109 -51 0 5 -95 55 -106 55 -4 0 -5 -2 -3
-4z"/>
<path d="M1723 3814 c-24 -14 -43 -27 -43 -30 0 -6 67 33 85 48 17 15 1 8 -42
-18z"/>
<path d="M3255 3823 c6 -6 28 -20 50 -32 22 -13 31 -15 20 -6 -22 18 -86 53
-70 38z"/>
<path d="M2572 3695 c-46 -93 -47 -95 -32 -95 5 0 30 41 55 90 28 57 40 90 32
90 -7 0 -32 -38 -55 -85z"/>
<path d="M2298 3763 c6 -2 18 -2 25 0 6 3 1 5 -13 5 -14 0 -19 -2 -12 -5z"/>
<path d="M3350 3767 c0 -3 34 -30 75 -61 96 -73 208 -185 281 -281 31 -41 59
-75 61 -75 3 0 -9 19 -26 43 -66 89 -149 181 -222 245 -76 66 -169 137 -169
129z"/>
<path d="M2812 3653 c2 -53 8 -98 13 -100 6 -2 9 33 7 97 -2 56 -8 100 -13
100 -6 0 -9 -39 -7 -97z"/>
<path d="M1589 3723 c-13 -16 -12 -17 4 -4 16 13 21 21 13 21 -2 0 -10 -8 -17
-17z"/>
<path d="M2200 3722 c0 -25 16 -38 60 -47 56 -11 83 -33 77 -62 -4 -22 -3 -23
11 -10 9 10 12 24 8 41 -5 21 -17 28 -64 42 -31 8 -65 25 -74 36 -18 20 -18
20 -18 0z"/>
<path d="M2080 3713 c0 -19 55 -173 62 -173 13 0 9 21 -18 102 -14 43 -30 78
-35 78 -5 0 -9 -3 -9 -7z"/>
<path d="M1549 3693 c-13 -16 -12 -17 4 -4 9 7 17 15 17 17 0 8 -8 3 -21 -13z"/>
<path d="M2930 3699 c0 -5 5 -7 10 -4 6 3 10 8 10 11 0 2 -4 4 -10 4 -5 0 -10
-5 -10 -11z"/>
<path d="M1465 3623 c-33 -31 -46 -47 -30 -36 29 20 104 93 94 93 -2 -1 -31
-26 -64 -57z"/>
<path d="M3022 3643 c-6 -16 -22 -54 -36 -85 -17 -39 -22 -58 -13 -58 12 0 77
133 77 158 0 22 -18 13 -28 -15z"/>
<path d="M1908 3645 c-5 -6 -4 -38 8 -153 9 -85 24 -49 17 41 -6 85 -14 122
-25 112z"/>
<path d="M3098 3542 c-41 -68 -52 -102 -29 -87 19 11 92 148 85 155 -5 5 -30
-26 -56 -68z"/>
<path d="M1360 3515 c-24 -25 -42 -45 -39 -45 3 0 25 20 49 45 24 25 42 45 39
45 -3 0 -25 -20 -49 -45z"/>
<path d="M1738 3523 c15 -3 29 -17 37 -36 12 -26 14 -28 15 -10 0 40 -11 53
-44 52 -24 -1 -26 -3 -8 -6z"/>
<path d="M1657 3484 c-9 -9 104 -155 114 -148 11 7 7 13 -48 86 -47 61 -57 71
-66 62z"/>
<path d="M1299 3443 c-13 -16 -12 -17 4 -4 9 7 17 15 17 17 0 8 -8 3 -21 -13z"/>
<path d="M3285 3412 c-53 -27 -83 -47 -73 -49 25 -6 188 80 171 90 -4 3 -48
-16 -98 -41z"/>
<path d="M1770 3445 c0 -9 82 -46 93 -42 7 2 -7 14 -30 25 -41 21 -63 27 -63
17z"/>
<path d="M1269 3403 c-13 -16 -12 -17 4 -4 16 13 21 21 13 21 -2 0 -10 -8 -17
-17z"/>
<path d="M1575 3400 c-10 -17 116 -143 129 -130 7 7 -11 32 -56 76 -44 45 -68
62 -73 54z"/>
<path d="M1239 3363 c-13 -16 -12 -17 4 -4 9 7 17 15 17 17 0 8 -8 3 -21 -13z"/>
<path d="M3779 3325 c5 -11 17 -29 26 -40 l16 -20 -10 20 c-5 11 -17 29 -26
40 l-16 20 10 -20z"/>
<path d="M1180 3270 c-6 -11 -8 -20 -6 -20 3 0 10 9 16 20 6 11 8 20 6 20 -3
0 -10 -9 -16 -20z"/>
<path d="M3862 3175 c18 -35 34 -63 36 -61 4 5 -56 126 -63 126 -3 0 10 -29
27 -65z"/>
<path d="M1747 3084 c-15 -14 -29 -40 -32 -58 -3 -17 -5 -284 -3 -594 l3 -564
33 -29 32 -29 262 0 261 0 -7 -52 c-3 -29 -6 -68 -6 -85 0 -32 -1 -33 -45 -33
-41 0 -45 -2 -45 -25 l0 -25 300 0 300 0 0 25 c0 23 -4 25 -45 25 -41 0 -45 2
-45 24 0 12 -3 51 -6 85 l-7 61 260 0 c247 0 262 1 286 21 15 11 31 37 37 57
8 25 10 217 8 599 l-3 562 -29 30 -30 31 -727 0 -726 0 -26 -26z m1477 -46
c10 -14 16 -44 16 -80 l0 -58 -740 0 -740 0 0 62 c0 108 -73 98 741 98 l708 0
15 -22z m14 -575 l2 -383 -740 0 -740 0 0 385 0 385 738 -2 737 -3 3 -382z m0
-500 c2 -52 -1 -66 -18 -83 -20 -20 -28 -20 -724 -20 l-705 0 -15 22 c-11 15
-16 45 -16 85 l0 63 738 -2 737 -3 3 -62z m-584 -214 c3 -34 6 -73 6 -85 l0
-24 -160 0 -160 0 0 33 c0 17 3 56 6 85 l7 52 147 0 147 0 7 -61z"/>
<path d="M1820 2980 c0 -25 4 -30 25 -30 21 0 25 5 25 30 0 25 -4 30 -25 30
-21 0 -25 -5 -25 -30z"/>
<path d="M1930 2980 c0 -25 4 -30 25 -30 21 0 25 5 25 30 0 25 -4 30 -25 30
-21 0 -25 -5 -25 -30z"/>
<path d="M2040 2980 c0 -25 4 -30 25 -30 21 0 25 5 25 30 0 25 -4 30 -25 30
-21 0 -25 -5 -25 -30z"/>
<path d="M2016 2693 c-27 -79 -26 -93 3 -93 12 0 23 18 39 68 27 83 27 88 3
95 -17 4 -24 -6 -45 -70z"/>
<path d="M1877 2722 c-15 -16 -27 -34 -27 -42 0 -8 12 -26 27 -42 25 -26 28
-27 45 -11 17 15 17 17 2 35 -16 17 -16 19 0 36 15 18 15 20 -2 35 -17 16 -20
15 -45 -11z"/>
<path d="M2147 2733 c-15 -16 -15 -18 0 -35 15 -17 15 -19 -1 -36 -15 -18 -15
-20 2 -35 17 -16 20 -15 52 18 l34 35 -35 35 c-32 33 -36 34 -52 18z"/>
<path d="M1850 2515 c0 -20 5 -25 25 -25 20 0 25 5 25 25 0 20 -5 25 -25 25
-20 0 -25 -5 -25 -25z"/>
<path d="M1960 2515 l0 -25 200 0 200 0 0 25 0 25 -200 0 -200 0 0 -25z"/>
<path d="M2420 2515 c0 -20 5 -25 25 -25 20 0 25 5 25 25 0 20 -5 25 -25 25
-20 0 -25 -5 -25 -25z"/>
<path d="M1850 2405 c0 -20 5 -25 25 -25 20 0 25 5 25 25 0 20 -5 25 -25 25
-20 0 -25 -5 -25 -25z"/>
<path d="M1960 2405 l0 -25 350 0 350 0 0 25 0 25 -350 0 -350 0 0 -25z"/>
<path d="M2720 2405 c0 -25 1 -25 80 -25 79 0 80 0 80 25 0 25 -1 25 -80 25
-79 0 -80 0 -80 -25z"/>
<path d="M1850 2295 c0 -20 5 -25 25 -25 20 0 25 5 25 25 0 20 -5 25 -25 25
-20 0 -25 -5 -25 -25z"/>
<path d="M1960 2295 l0 -25 255 0 255 0 0 25 0 25 -255 0 -255 0 0 -25z"/>
<path d="M1850 2185 c0 -20 5 -25 25 -25 20 0 25 5 25 25 0 20 -5 25 -25 25
-20 0 -25 -5 -25 -25z"/>
<path d="M1960 2185 l0 -25 390 0 390 0 0 25 0 25 -390 0 -390 0 0 -25z"/>
<path d="M2800 2185 c0 -20 5 -25 25 -25 20 0 25 5 25 25 0 20 -5 25 -25 25
-20 0 -25 -5 -25 -25z"/>
<path d="M2910 2185 c0 -20 5 -25 25 -25 20 0 25 5 25 25 0 20 -5 25 -25 25
-20 0 -25 -5 -25 -25z"/>
<path d="M2470 1945 c0 -20 5 -25 25 -25 20 0 25 5 25 25 0 20 -5 25 -25 25
-20 0 -25 -5 -25 -25z"/>
<path d="M1076 3055 c-9 -26 -7 -32 5 -12 6 10 9 21 6 23 -2 3 -7 -2 -11 -11z"/>
<path d="M3926 3030 c3 -14 11 -32 16 -40 6 -10 7 -7 2 10 -3 14 -11 32 -16
40 -6 10 -7 7 -2 -10z"/>
<path d="M3961 2924 c0 -11 3 -14 6 -6 3 7 2 16 -1 19 -3 4 -6 -2 -5 -13z"/>
<path d="M1026 2904 c-4 -14 -5 -28 -3 -31 3 -2 8 8 11 23 4 14 5 28 3 31 -3
2 -8 -8 -11 -23z"/>
<path d="M3971 2884 c0 -11 3 -14 6 -6 3 7 2 16 -1 19 -3 4 -6 -2 -5 -13z"/>
<path d="M3981 2844 c0 -11 3 -14 6 -6 3 7 2 16 -1 19 -3 4 -6 -2 -5 -13z"/>
<path d="M3991 2804 c0 -11 3 -14 6 -6 3 7 2 16 -1 19 -3 4 -6 -2 -5 -13z"/>
<path d="M1001 2794 c0 -11 3 -14 6 -6 3 7 2 16 -1 19 -3 4 -6 -2 -5 -13z"/>
<path d="M4002 2745 c0 -16 2 -22 5 -12 2 9 2 23 0 30 -3 6 -5 -1 -5 -18z"/>
<path d="M992 2735 c0 -16 2 -22 5 -12 2 9 2 23 0 30 -3 6 -5 -1 -5 -18z"/>
<path d="M4012 2680 c0 -14 2 -19 5 -12 2 6 2 18 0 25 -3 6 -5 1 -5 -13z"/>
<path d="M982 2660 c0 -19 2 -27 5 -17 2 9 2 25 0 35 -3 9 -5 1 -5 -18z"/>
<path d="M4024 2495 c0 -55 1 -76 3 -47 2 29 2 74 0 100 -2 26 -3 2 -3 -53z"/>
<path d="M973 2495 c0 -44 2 -61 4 -37 2 23 2 59 0 80 -2 20 -4 1 -4 -43z"/>
<path d="M982 2340 c0 -19 2 -27 5 -17 2 9 2 25 0 35 -3 9 -5 1 -5 -18z"/>
<path d="M4012 2320 c0 -14 2 -19 5 -12 2 6 2 18 0 25 -3 6 -5 1 -5 -13z"/>
<path d="M992 2265 c0 -16 2 -22 5 -12 2 9 2 23 0 30 -3 6 -5 -1 -5 -18z"/>
<path d="M4002 2255 c0 -16 2 -22 5 -12 2 9 2 23 0 30 -3 6 -5 -1 -5 -18z"/>
<path d="M1001 2204 c0 -11 3 -14 6 -6 3 7 2 16 -1 19 -3 4 -6 -2 -5 -13z"/>
<path d="M3991 2194 c0 -11 3 -14 6 -6 3 7 2 16 -1 19 -3 4 -6 -2 -5 -13z"/>
<path d="M1011 2154 c0 -11 3 -14 6 -6 3 7 2 16 -1 19 -3 4 -6 -2 -5 -13z"/>
<path d="M3981 2154 c0 -11 3 -14 6 -6 3 7 2 16 -1 19 -3 4 -6 -2 -5 -13z"/>
<path d="M3971 2114 c0 -11 3 -14 6 -6 3 7 2 16 -1 19 -3 4 -6 -2 -5 -13z"/>
<path d="M3961 2074 c0 -11 3 -14 6 -6 3 7 2 16 -1 19 -3 4 -6 -2 -5 -13z"/>
<path d="M3926 1975 c-9 -26 -7 -32 5 -12 6 10 9 21 6 23 -2 3 -7 -2 -11 -11z"/>
<path d="M1080 1935 c0 -5 5 -17 10 -25 5 -8 10 -10 10 -5 0 6 -5 17 -10 25
-5 8 -10 11 -10 5z"/>
<path d="M3857 1815 c-20 -41 -35 -75 -32 -75 7 0 77 141 73 146 -2 2 -21 -30
-41 -71z"/>
<path d="M1180 1730 c6 -11 13 -20 16 -20 2 0 0 9 -6 20 -6 11 -13 20 -16 20
-2 0 0 -9 6 -20z"/>
<path d="M3800 1710 c-6 -11 -8 -20 -6 -20 3 0 10 9 16 20 6 11 8 20 6 20 -3
0 -10 -9 -16 -20z"/>
<path d="M1210 1680 c6 -11 13 -20 16 -20 2 0 0 9 -6 20 -6 11 -13 20 -16 20
-2 0 0 -9 6 -20z"/>
<path d="M1230 1646 c0 -2 8 -10 18 -17 15 -13 16 -12 3 4 -13 16 -21 21 -21
13z"/>
<path d="M3729 1603 c-13 -16 -12 -17 4 -4 16 13 21 21 13 21 -2 0 -10 -8 -17
-17z"/>
<path d="M1280 1580 c11 -16 26 -33 32 -36 7 -4 -1 9 -16 29 -34 44 -46 50
-16 7z"/>
<path d="M3699 1563 c-13 -16 -12 -17 4 -4 9 7 17 15 17 17 0 8 -8 3 -21 -13z"/>
<path d="M3595 1447 c-49 -51 -125 -119 -167 -151 -43 -32 -78 -61 -78 -63 0
-7 79 52 158 119 61 52 192 189 180 188 -1 0 -43 -42 -93 -93z"/>
<path d="M1360 1484 c25 -27 47 -49 50 -47 2 2 -18 25 -45 51 l-49 47 44 -51z"/>
<path d="M1670 1485 c0 -5 5 -17 10 -25 5 -8 10 -10 10 -5 0 6 -5 17 -10 25
-5 8 -10 11 -10 5z"/>
<path d="M3278 1445 c5 -11 20 -29 33 -40 22 -20 22 -20 11 0 -5 11 -20 29
-33 40 -22 20 -22 20 -11 0z"/>
<path d="M3340 1440 c8 -5 20 -10 25 -10 6 0 3 5 -5 10 -8 5 -19 10 -25 10 -5
0 -3 -5 5 -10z"/>
<path d="M1746 1401 c-10 -11 -16 -25 -15 -30 2 -6 12 3 21 19 20 35 18 38 -6
11z"/>
<path d="M1475 1370 c21 -22 41 -40 44 -40 3 0 -13 18 -34 40 -21 22 -41 40
-44 40 -3 0 13 -18 34 -40z"/>
<path d="M3206 1372 c10 -19 25 -39 33 -45 9 -8 8 0 -5 21 -10 19 -25 39 -33
45 -9 8 -8 0 5 -21z"/>
<path d="M1801 1347 c-13 -21 -12 -21 5 -5 10 10 16 20 13 22 -3 3 -11 -5 -18
-17z"/>
<path d="M1840 1331 c-11 -23 -19 -41 -16 -41 7 0 47 72 42 77 -2 3 -14 -13
-26 -36z"/>
<path d="M3166 1357 c3 -10 9 -15 12 -12 3 3 0 11 -7 18 -10 9 -11 8 -5 -6z"/>
<path d="M3110 1344 c0 -12 38 -74 46 -74 3 0 -5 17 -17 38 -28 46 -29 47 -29
36z"/>
<path d="M1540 1316 c0 -2 8 -10 18 -17 15 -13 16 -12 3 4 -13 16 -21 21 -21
13z"/>
<path d="M3082 1305 c4 -6 12 -22 17 -36 6 -15 10 -18 10 -8 1 9 -7 25 -16 36
-10 10 -15 14 -11 8z"/>
<path d="M1945 1270 c-25 -56 -14 -60 13 -5 12 25 18 45 13 45 -4 0 -16 -18
-26 -40z"/>
<path d="M1584 1282 c8 -13 66 -56 66 -49 0 3 -17 17 -37 33 -20 15 -33 23
-29 16z"/>
<path d="M2023 1230 c0 -30 2 -43 4 -27 2 15 2 39 0 55 -2 15 -4 2 -4 -28z"/>
<path d="M3021 1268 c-1 -9 6 -24 15 -32 21 -22 31 -20 12 2 -9 9 -18 24 -21
32 -4 12 -6 12 -6 -2z"/>
<path d="M2083 1210 c0 -30 2 -43 4 -27 2 15 2 39 0 55 -2 15 -4 2 -4 -28z"/>
<path d="M2937 1220 c9 -22 18 -38 20 -36 7 6 -20 76 -28 76 -4 0 0 -18 8 -40z"/>
<path d="M1675 1215 c22 -18 86 -53 70 -38 -5 6 -28 20 -50 32 -22 13 -31 15
-20 6z"/>
<path d="M2836 1205 c11 -48 25 -76 18 -35 -4 19 -10 42 -15 50 -6 10 -7 5 -3
-15z"/>
<path d="M3312 1215 c-12 -9 -59 -36 -104 -60 -46 -25 -79 -45 -74 -45 12 0
156 77 186 100 30 23 24 27 -8 5z"/>
<path d="M2177 1179 c-16 -21 -26 -39 -23 -39 8 0 59 70 55 74 -2 3 -17 -13
-32 -35z"/>
<path d="M2730 1206 c0 -13 45 -86 53 -86 4 0 -5 19 -19 43 -31 49 -34 53 -34
43z"/>
<path d="M2276 1159 c-4 -23 -5 -44 -2 -46 2 -2 7 14 11 37 4 23 5 43 2 46 -2
3 -7 -14 -11 -37z"/>
<path d="M2383 1155 c0 -22 2 -30 4 -17 2 12 2 30 0 40 -3 9 -5 -1 -4 -23z"/>
<path d="M2632 1170 c0 -14 4 -36 8 -50 6 -20 8 -21 8 -5 0 11 -4 34 -8 50 -7
27 -8 27 -8 5z"/>
<path d="M2585 1140 c0 -21 3 -36 8 -33 4 2 7 17 7 33 0 16 -3 31 -7 33 -5 3
-8 -12 -8 -33z"/>
<path d="M2533 1125 c0 -22 2 -30 4 -17 2 12 2 30 0 40 -3 9 -5 -1 -4 -23z"/>
<path d="M2317 1129 c4 -13 8 -18 11 -10 2 7 -1 18 -6 23 -8 8 -9 4 -5 -13z"/>
<path d="M2108 1023 c7 -3 16 -2 19 1 4 3 -2 6 -13 5 -11 0 -14 -3 -6 -6z"/>
<path d="M2798 1003 c7 -3 16 -2 19 1 4 3 -2 6 -13 5 -11 0 -14 -3 -6 -6z"/>
<path d="M2248 993 c7 -3 16 -2 19 1 4 3 -2 6 -13 5 -11 0 -14 -3 -6 -6z"/>
<path d="M2738 993 c7 -3 16 -2 19 1 4 3 -2 6 -13 5 -11 0 -14 -3 -6 -6z"/>
<path d="M2318 983 c12 -2 30 -2 40 0 9 3 -1 5 -23 4 -22 0 -30 -2 -17 -4z"/>
<path d="M2648 983 c12 -2 30 -2 40 0 9 3 -1 5 -23 4 -22 0 -30 -2 -17 -4z"/>
<path d="M2453 973 c26 -2 68 -2 95 0 26 2 4 3 -48 3 -52 0 -74 -1 -47 -3z"/>
</g>
</svg>
